<svg width="20" height="24" viewBox="0 0 20 24" fill="none" xmlns="http://www.w3.org/2000/svg">
<g clip-path="url(#clip0_257_619)">
<path d="M18.0391 7.14551L17.126 21.8428C17.0709 22.7186 16.349 23.3955 15.4863 23.3955H4.51367C3.70501 23.3955 3.01955 22.8008 2.8916 22.0049L2.87402 21.8428L1.96094 7.14551H18.0391ZM7.3125 1.39551H12.6875C12.994 1.39551 13.278 1.54702 13.4492 1.79785L13.5156 1.91113L13.5176 1.91406L13.8389 2.55664L13.9766 2.83301H18.5713C19.0824 2.83301 19.5 3.24859 19.5 3.77051C19.5 4.29242 19.0824 4.70801 18.5713 4.70801H1.42871C0.917607 4.70801 0.5 4.29242 0.5 3.77051C0.5 3.24859 0.917607 2.83301 1.42871 2.83301H6.02344L6.16113 2.55664L6.48242 1.91406L6.48438 1.91113C6.64103 1.59323 6.96219 1.39551 7.3125 1.39551Z" fill="#FF5C0C" stroke="#333333"/>
</g>
<defs>
<clipPath id="clip0_257_619">
<rect width="20" height="23" fill="white" transform="translate(0 0.895508)"/>
</clipPath>
</defs>
</svg>
