<svg width="24" height="24" viewBox="0 0 24 24" fill="none" xmlns="http://www.w3.org/2000/svg">
<g clip-path="url(#clip0_257_617)">
<path d="M19.0439 10.7915L8.48535 20.9067C8.11216 21.2644 7.65751 21.54 7.15723 21.7153L6.94238 21.7837L1.30664 23.3726C1.10537 23.4277 0.893884 23.3866 0.737305 23.2729L0.673828 23.2202C0.537389 23.0895 0.478441 22.91 0.506836 22.7339L0.524414 22.6587L2.18262 17.2554L2.18359 17.2563C2.33394 16.7727 2.59105 16.3249 2.93848 15.9468L3.09277 15.7886L13.6729 5.64404L19.0439 10.7915ZM17.3516 2.12354C18.3297 1.18614 19.9228 1.18579 20.9014 2.12256V2.12354L22.749 3.89795C23.6552 4.76635 23.712 6.13163 22.9189 7.06201L22.749 7.2417L20.8262 9.0835L15.4551 3.93701L17.2031 2.26221H17.207L17.3516 2.12354Z" fill="#FF5C0C" stroke="#333333"/>
</g>
<defs>
<clipPath id="clip0_257_617">
<rect width="24" height="23" fill="white" transform="translate(0 0.895508)"/>
</clipPath>
</defs>
</svg>
